<?xml version="1.0" encoding="UTF-8"?>
<!DOCTYPE svg PUBLIC "-//W3C//DTD SVG 1.1//EN" "http://www.w3.org/Graphics/SVG/1.1/DTD/svg11.dtd">
<svg xmlns="http://www.w3.org/2000/svg" version="1.1" width="90px" height="90px" style="shape-rendering:geometricPrecision; text-rendering:geometricPrecision; image-rendering:optimizeQuality; fill-rule:evenodd; clip-rule:evenodd" xmlns:xlink="http://www.w3.org/1999/xlink">
<g><path style="opacity:0.654" fill="#120f0c" d="M 75.5,89.5 C 73.5,89.5 71.5,89.5 69.5,89.5C 69.5,88.1667 69.5,86.8333 69.5,85.5C 70.4584,85.9528 71.2917,86.6195 72,87.5C 72.1667,87.1667 72.3333,86.8333 72.5,86.5C 71.5236,83.8371 70.1903,81.5038 68.5,79.5C 68.7039,75.7804 67.7039,72.447 65.5,69.5C 64.2613,69.9424 63.2613,70.6091 62.5,71.5C 63.2572,74.7911 63.9239,78.1244 64.5,81.5C 63.8333,81.1667 63.1667,80.8333 62.5,80.5C 62.7525,77.6802 62.2525,75.0135 61,72.5C 60.7216,73.4158 60.2216,74.0825 59.5,74.5C 58.3065,74.9704 57.6399,75.9704 57.5,77.5C 58.1754,80.1778 58.842,82.8445 59.5,85.5C 58.8333,84.8333 58.1667,84.1667 57.5,83.5C 57.1663,80.8322 55.8329,78.8322 53.5,77.5C 52.3691,79.0745 52.2025,80.7412 53,82.5C 54.0946,83.6934 54.928,85.0267 55.5,86.5C 55.5,86.8333 55.5,87.1667 55.5,87.5C 55.5,88.1667 55.5,88.8333 55.5,89.5C 54.5,89.5 53.5,89.5 52.5,89.5C 52.2053,85.7721 51.5386,82.1054 50.5,78.5C 49.8933,78.6236 49.56,78.9569 49.5,79.5C 48.8333,79.5 48.1667,79.5 47.5,79.5C 46.8333,79.5 46.1667,79.5 45.5,79.5C 45.8417,78.6618 46.5084,78.3284 47.5,78.5C 57.3591,74.754 64.3591,68.0874 68.5,58.5C 69.1667,58.5 69.5,58.8333 69.5,59.5C 69.369,60.2389 69.5357,60.9056 70,61.5C 71.435,59.6264 72.6016,57.6264 73.5,55.5C 73.2528,54.2867 72.5862,53.62 71.5,53.5C 70.8333,50.1667 70.1667,46.8333 69.5,43.5C 69.5,43.1667 69.5,42.8333 69.5,42.5C 69.5,41.8333 69.5,41.1667 69.5,40.5C 69.5,39.5 69.5,38.5 69.5,37.5C 69.6716,36.5084 69.3382,35.8417 68.5,35.5C 67.713,33.8958 66.3797,33.2291 64.5,33.5C 65.5,32.8333 66.5,32.1667 67.5,31.5C 59.5009,25.5003 50.5009,22.5003 40.5,22.5C 39.5084,22.3284 38.8417,22.6618 38.5,23.5C 37.5084,23.3284 36.8417,23.6618 36.5,24.5C 34.0733,24.523 31.74,25.023 29.5,26C 30.6364,27.1451 31.6364,28.3117 32.5,29.5C 32.5,29.8333 32.5,30.1667 32.5,30.5C 30.6161,31.3387 29.2828,32.672 28.5,34.5C 28.5,34.8333 28.5,35.1667 28.5,35.5C 27.2504,38.006 26.5838,40.6726 26.5,43.5C 25.6618,43.8417 25.3284,44.5084 25.5,45.5C 25.0679,46.7095 24.4013,47.7095 23.5,48.5C 22.7814,50.7638 22.448,53.0971 22.5,55.5C 21.5084,55.3284 20.8417,55.6618 20.5,56.5C 20.2639,59.2257 21.0972,61.559 23,63.5C 23.4643,62.9056 23.631,62.2389 23.5,61.5C 23.8333,61.5 24.1667,61.5 24.5,61.5C 25.5686,63.9687 26.9019,66.3021 28.5,68.5C 27.8333,69.5 27.1667,70.5 26.5,71.5C 26.2073,75.7122 24.8739,79.7122 22.5,83.5C 21.8333,84.1667 21.1667,84.8333 20.5,85.5C 20.6427,83.7376 20.3094,82.0709 19.5,80.5C 20.4229,76.6902 22.0896,73.3568 24.5,70.5C 22.2059,67.3483 20.0393,64.015 18,60.5C 18.1374,56.8266 18.6374,53.1599 19.5,49.5C 18.7681,45.8057 17.9348,42.139 17,38.5C 16.5172,39.448 16.3505,40.448 16.5,41.5C 15.448,41.6495 14.448,41.4828 13.5,41C 13.7875,37.138 13.7875,33.138 13.5,29C 16.1136,20.5402 21.7802,16.7069 30.5,17.5C 29.5303,23.4939 30.8637,24.4939 34.5,20.5C 35.1667,20.8333 35.8333,21.1667 36.5,21.5C 39.011,20.2187 41.6776,19.5521 44.5,19.5C 54.1183,21.8138 63.7849,23.8138 73.5,25.5C 71.2338,26.3142 68.9005,26.8142 66.5,27C 69.5778,27.9138 71.9111,29.7472 73.5,32.5C 73.3333,33.1667 73.1667,33.8333 73,34.5C 72.5814,33.3279 71.9147,32.3279 71,31.5C 71.1326,34.9531 72.2993,38.1198 74.5,41C 74.0946,41.9454 73.428,42.6121 72.5,43C 73.4453,44.9115 73.4453,46.9115 72.5,49C 76.3314,52.8941 76.4981,57.0608 73,61.5C 70.6901,63.1989 68.8567,65.1989 67.5,67.5C 70.4749,74.741 73.1416,82.0743 75.5,89.5 Z"/></g>
<g><path style="opacity:1" fill="#9c3a35" d="M 23.5,19.5 C 28.0685,19.0826 29.5685,21.0826 28,25.5C 26.2215,26.4791 24.5548,26.1458 23,24.5C 21.3333,25.1667 19.6667,25.8333 18,26.5C 18.8038,23.5103 20.6371,21.177 23.5,19.5 Z"/></g>
<g><path style="opacity:1" fill="#3f3c2b" d="M 40.5,22.5 C 40.3691,23.3764 40.7025,24.0431 41.5,24.5C 44.3819,25.9608 47.3819,27.1275 50.5,28C 45.7638,28.3669 41.7638,26.8669 38.5,23.5C 38.8417,22.6618 39.5084,22.3284 40.5,22.5 Z"/></g>
<g><path style="opacity:1" fill="#82312d" d="M 21.5,31.5 C 19.8712,32.6253 18.3712,33.9586 17,35.5C 16.2141,29.6191 18.7141,27.1191 24.5,28C 22.9371,28.7589 21.9371,29.9256 21.5,31.5 Z"/></g>
<g><path style="opacity:1" fill="#963835" d="M 28.5,34.5 C 27.8826,34.6107 27.3826,34.944 27,35.5C 26.1816,32.7728 26.3483,30.1062 27.5,27.5C 28.4742,29.7427 28.8076,32.076 28.5,34.5 Z"/></g>
<g><path style="opacity:1" fill="#e6dfa2" d="M 40.5,22.5 C 50.5009,22.5003 59.5009,25.5003 67.5,31.5C 62.6687,31.611 58.002,31.111 53.5,30C 56.9276,31.9398 60.5942,33.1065 64.5,33.5C 66.3797,33.2291 67.713,33.8958 68.5,35.5C 56.3894,35.7972 45.7227,32.1306 36.5,24.5C 36.8417,23.6618 37.5084,23.3284 38.5,23.5C 41.7638,26.8669 45.7638,28.3669 50.5,28C 47.3819,27.1275 44.3819,25.9608 41.5,24.5C 40.7025,24.0431 40.3691,23.3764 40.5,22.5 Z"/></g>
<g><path style="opacity:1" fill="#615f56" d="M 32.5,30.5 C 37.8385,34.174 43.1718,37.8407 48.5,41.5C 46.323,41.4139 44.323,40.7472 42.5,39.5C 42.1667,39.6667 41.8333,39.8333 41.5,40C 42.5,41 43.5,42 44.5,43C 43.8333,43.6667 43.1667,43.6667 42.5,43C 38.0726,40.3271 34.4059,36.8271 31.5,32.5C 30.8766,40.3344 28.7099,47.6677 25,54.5C 24.5034,56.8098 24.3367,59.1432 24.5,61.5C 24.1667,61.5 23.8333,61.5 23.5,61.5C 23.047,59.4348 22.047,57.7682 20.5,56.5C 20.8417,55.6618 21.5084,55.3284 22.5,55.5C 25.1786,52.4825 26.1786,49.1492 25.5,45.5C 25.3284,44.5084 25.6618,43.8417 26.5,43.5C 26.81,44.7383 27.31,44.7383 28,43.5C 28.3729,41.3018 28.8729,39.1351 29.5,37C 29.4301,36.2352 29.0967,35.7352 28.5,35.5C 28.5,35.1667 28.5,34.8333 28.5,34.5C 29.2828,32.672 30.6161,31.3387 32.5,30.5 Z"/></g>
<g><path style="opacity:1" fill="#8d8862" d="M 67.5,31.5 C 66.5,32.1667 65.5,32.8333 64.5,33.5C 60.5942,33.1065 56.9276,31.9398 53.5,30C 58.002,31.111 62.6687,31.611 67.5,31.5 Z"/></g>
<g><path style="opacity:1" fill="#89845f" d="M 36.5,24.5 C 45.7227,32.1306 56.3894,35.7972 68.5,35.5C 69.3382,35.8417 69.6716,36.5084 69.5,37.5C 64.447,36.9876 59.447,36.4876 54.5,36C 56.7274,36.941 58.7274,38.1077 60.5,39.5C 60.8333,40.1667 61.1667,40.8333 61.5,41.5C 51.1153,39.306 41.7819,34.9727 33.5,28.5C 32.8933,28.6236 32.56,28.9569 32.5,29.5C 31.6364,28.3117 30.6364,27.1451 29.5,26C 31.74,25.023 34.0733,24.523 36.5,24.5 Z"/></g>
<g><path style="opacity:0.999" fill="#532c23" d="M 23.5,35.5 C 23.0733,38.0098 22.4067,40.3432 21.5,42.5C 21.5875,39.4017 21.0875,39.0684 20,41.5C 19.847,38.1001 20.347,34.7667 21.5,31.5C 22.5832,31.4606 23.5832,31.1272 24.5,30.5C 25.7445,31.9554 25.5778,33.2887 24,34.5C 23.6667,34.1667 23.3333,33.8333 23,33.5C 22.3083,34.4368 22.475,35.1034 23.5,35.5 Z"/></g>
<g><path style="opacity:1" fill="#f1e7a7" d="M 69.5,37.5 C 69.5,38.5 69.5,39.5 69.5,40.5C 66.4824,40.2962 63.4824,39.9629 60.5,39.5C 58.7274,38.1077 56.7274,36.941 54.5,36C 59.447,36.4876 64.447,36.9876 69.5,37.5 Z"/></g>
<g><path style="opacity:1" fill="#d2cb94" d="M 23.5,35.5 C 24.3764,35.3691 25.0431,35.7025 25.5,36.5C 24.6704,40.469 24.0037,44.469 23.5,48.5C 22.8826,48.6107 22.3826,48.944 22,49.5C 21.5034,47.1902 21.3367,44.8568 21.5,42.5C 22.4067,40.3432 23.0733,38.0098 23.5,35.5 Z"/></g>
<g><path style="opacity:1" fill="#e4dfa6" d="M 28.5,35.5 C 29.0967,35.7352 29.4301,36.2352 29.5,37C 28.8729,39.1351 28.3729,41.3018 28,43.5C 27.31,44.7383 26.81,44.7383 26.5,43.5C 26.5838,40.6726 27.2504,38.006 28.5,35.5 Z"/></g>
<g><path style="opacity:1" fill="#ede7ac" d="M 61.5,41.5 C 64.0545,42.388 66.7212,42.7214 69.5,42.5C 69.5,42.8333 69.5,43.1667 69.5,43.5C 64.6946,44.4872 59.6946,44.8205 54.5,44.5C 52.9699,42.6535 50.9699,41.6535 48.5,41.5C 43.1718,37.8407 37.8385,34.174 32.5,30.5C 32.5,30.1667 32.5,29.8333 32.5,29.5C 32.56,28.9569 32.8933,28.6236 33.5,28.5C 41.7819,34.9727 51.1153,39.306 61.5,41.5 Z"/></g>
<g><path style="opacity:1" fill="#504b39" d="M 60.5,39.5 C 63.4824,39.9629 66.4824,40.2962 69.5,40.5C 69.5,41.1667 69.5,41.8333 69.5,42.5C 66.7212,42.7214 64.0545,42.388 61.5,41.5C 61.1667,40.8333 60.8333,40.1667 60.5,39.5 Z"/></g>
<g><path style="opacity:1" fill="#32342c" d="M 48.5,41.5 C 50.9699,41.6535 52.9699,42.6535 54.5,44.5C 51.911,44.539 49.911,43.539 48.5,41.5 Z"/></g>
<g><path style="opacity:1" fill="#f4f4f3" d="M 48.5,41.5 C 49.911,43.539 51.911,44.539 54.5,44.5C 55.8333,45.1667 57.1667,45.8333 58.5,46.5C 54.171,48.82 52.171,52.4866 52.5,57.5C 53.0424,60.8029 55.0424,62.8029 58.5,63.5C 61.4312,62.0719 63.9312,60.0719 66,57.5C 66.6917,56.5632 66.525,55.8966 65.5,55.5C 65.2865,53.8561 65.6198,52.3561 66.5,51C 65.244,50.5831 64.5774,49.7498 64.5,48.5C 65.344,46.2407 67.0107,45.2407 69.5,45.5C 69.7059,49.8982 69.3726,54.2315 68.5,58.5C 64.3591,68.0874 57.3591,74.754 47.5,78.5C 40.5319,76.5145 34.1985,73.1811 28.5,68.5C 26.9019,66.3021 25.5686,63.9687 24.5,61.5C 24.3367,59.1432 24.5034,56.8098 25,54.5C 28.7099,47.6677 30.8766,40.3344 31.5,32.5C 34.4059,36.8271 38.0726,40.3271 42.5,43C 43.1667,43.6667 43.8333,43.6667 44.5,43C 43.5,42 42.5,41 41.5,40C 41.8333,39.8333 42.1667,39.6667 42.5,39.5C 44.323,40.7472 46.323,41.4139 48.5,41.5 Z"/></g>
<g><path style="opacity:1" fill="#858585" d="M 38.5,46.5 C 35.7892,46.1849 33.4559,46.8516 31.5,48.5C 31.0618,48.5654 30.7284,48.3988 30.5,48C 32.4546,44.1154 35.1213,43.6154 38.5,46.5 Z"/></g>
<g><path style="opacity:1" fill="#5f5f5f" d="M 45.5,44.5 C 45.56,43.9569 45.8933,43.6236 46.5,43.5C 48.0514,45.5453 50.0514,47.0453 52.5,48C 51.5,48.6667 50.5,48.6667 49.5,48C 48.051,46.8978 46.7177,45.7311 45.5,44.5 Z"/></g>
<g><path style="opacity:1" fill="#242423" d="M 64.5,48.5 C 64.5774,49.7498 65.244,50.5831 66.5,51C 65.6198,52.3561 65.2865,53.8561 65.5,55.5C 65.1667,55.5 64.8333,55.5 64.5,55.5C 64.5119,50.6753 62.1786,48.5086 57.5,49C 55.7905,50.9157 54.4572,53.0824 53.5,55.5C 54.1882,56.8549 55.1882,57.8549 56.5,58.5C 57.6085,59.29 58.9419,59.79 60.5,60C 57.2253,60.9818 54.5586,60.1485 52.5,57.5C 52.171,52.4866 54.171,48.82 58.5,46.5C 60.4024,45.4891 62.4024,45.3224 64.5,46C 60.667,46.6035 60.667,47.4368 64.5,48.5 Z"/></g>
<g><path style="opacity:1" fill="#514e4b" d="M 69.5,43.5 C 70.1667,46.8333 70.8333,50.1667 71.5,53.5C 70.9518,55.6264 70.2852,57.6264 69.5,59.5C 69.5,58.8333 69.1667,58.5 68.5,58.5C 69.3726,54.2315 69.7059,49.8982 69.5,45.5C 67.0107,45.2407 65.344,46.2407 64.5,48.5C 60.667,47.4368 60.667,46.6035 64.5,46C 62.4024,45.3224 60.4024,45.4891 58.5,46.5C 57.1667,45.8333 55.8333,45.1667 54.5,44.5C 59.6946,44.8205 64.6946,44.4872 69.5,43.5 Z"/></g>
<g><path style="opacity:1" fill="#dfdca8" d="M 25.5,45.5 C 26.1786,49.1492 25.1786,52.4825 22.5,55.5C 22.448,53.0971 22.7814,50.7638 23.5,48.5C 24.4013,47.7095 25.0679,46.7095 25.5,45.5 Z"/></g>
<g><path style="opacity:1" fill="#1e1d1e" d="M 38.5,46.5 C 42.9443,48.808 44.611,52.4747 43.5,57.5C 37.5587,61.8595 33.5587,60.5262 31.5,53.5C 30.9285,51.64 30.9285,49.9733 31.5,48.5C 33.4559,46.8516 35.7892,46.1849 38.5,46.5 Z"/></g>
<g><path style="opacity:1" fill="#f3f1f3" d="M 33.5,48.5 C 39.7839,47.6189 42.6172,50.2856 42,56.5C 38.6258,59.4052 35.6258,59.0719 33,55.5C 32.4436,53.1152 32.6103,50.7819 33.5,48.5 Z"/></g>
<g><path style="opacity:1" fill="#f1f1f1" d="M 64.5,55.5 C 62.4548,57.9844 59.7882,58.9844 56.5,58.5C 55.1882,57.8549 54.1882,56.8549 53.5,55.5C 54.4572,53.0824 55.7905,50.9157 57.5,49C 62.1786,48.5086 64.5119,50.6753 64.5,55.5 Z"/></g>
<g><path style="opacity:1" fill="#cacaca" d="M 71.5,53.5 C 72.5862,53.62 73.2528,54.2867 73.5,55.5C 72.6016,57.6264 71.435,59.6264 70,61.5C 69.5357,60.9056 69.369,60.2389 69.5,59.5C 70.2852,57.6264 70.9518,55.6264 71.5,53.5 Z"/></g>
<g><path style="opacity:1" fill="#e6e4e3" d="M 20.5,56.5 C 22.047,57.7682 23.047,59.4348 23.5,61.5C 23.631,62.2389 23.4643,62.9056 23,63.5C 21.0972,61.559 20.2639,59.2257 20.5,56.5 Z"/></g>
<g><path style="opacity:1" fill="#8c8a8c" d="M 31.5,53.5 C 33.5587,60.5262 37.5587,61.8595 43.5,57.5C 43.7135,59.1439 43.3802,60.6439 42.5,62C 37.0315,64.8367 33.1982,63.3367 31,57.5C 30.235,55.9343 30.4017,54.6009 31.5,53.5 Z"/></g>
<g><path style="opacity:1" fill="#7f7f7f" d="M 64.5,55.5 C 64.8333,55.5 65.1667,55.5 65.5,55.5C 66.525,55.8966 66.6917,56.5632 66,57.5C 63.9312,60.0719 61.4312,62.0719 58.5,63.5C 55.0424,62.8029 53.0424,60.8029 52.5,57.5C 54.5586,60.1485 57.2253,60.9818 60.5,60C 58.9419,59.79 57.6085,59.29 56.5,58.5C 59.7882,58.9844 62.4548,57.9844 64.5,55.5 Z"/></g>
<g><path style="opacity:1" fill="#585458" d="M 49.5,60.5 C 50.9238,62.5145 51.5905,64.8478 51.5,67.5C 46.7797,67.7746 46.4463,66.9412 50.5,65C 49.6198,63.6439 49.2865,62.1439 49.5,60.5 Z"/></g>
<g><path style="opacity:1" fill="#e7dfa2" d="M 34.5,77.5 C 33.8485,78.0906 33.1818,78.7573 32.5,79.5C 31.4942,82.8622 30.4942,86.1956 29.5,89.5C 27.5,89.5 25.5,89.5 23.5,89.5C 23.5,88.5 23.5,87.5 23.5,86.5C 24.404,85.791 24.7373,84.791 24.5,83.5C 25.9063,83.0269 26.573,82.0269 26.5,80.5C 28.1084,77.7898 29.2751,74.7898 30,71.5C 31.7547,72.67 32.7547,74.3367 33,76.5C 34.0875,74.0684 34.5875,74.4017 34.5,77.5 Z"/></g>
<g><path style="opacity:1" fill="#98916c" d="M 68.5,79.5 C 67.3586,76.7458 66.0252,74.0791 64.5,71.5C 63.8333,71.5 63.1667,71.5 62.5,71.5C 63.2613,70.6091 64.2613,69.9424 65.5,69.5C 67.7039,72.447 68.7039,75.7804 68.5,79.5 Z"/></g>
<g><path style="opacity:1" fill="#e2dc9e" d="M 26.5,71.5 C 27.3683,74.3273 27.3683,77.3273 26.5,80.5C 25.0937,80.9731 24.427,81.9731 24.5,83.5C 23.7784,83.9175 23.2784,84.5842 23,85.5C 22.5357,84.9056 22.369,84.2389 22.5,83.5C 24.8739,79.7122 26.2073,75.7122 26.5,71.5 Z"/></g>
<g><path style="opacity:1" fill="#2a2a26" d="M 28.5,68.5 C 34.1985,73.1811 40.5319,76.5145 47.5,78.5C 46.5084,78.3284 45.8417,78.6618 45.5,79.5C 43.32,82.381 42.32,85.7144 42.5,89.5C 41.1667,89.5 39.8333,89.5 38.5,89.5C 39.2603,85.9734 40.5936,82.64 42.5,79.5C 41.7579,78.7132 40.9246,78.0465 40,77.5C 37.9586,81.0838 35.792,84.5838 33.5,88C 34.4158,88.2784 35.0825,88.7784 35.5,89.5C 34.5,89.5 33.5,89.5 32.5,89.5C 33.0115,86.9785 34.0115,84.6451 35.5,82.5C 36.0289,80.4166 37.0289,78.5833 38.5,77C 36.6964,75.1878 35.6964,75.3544 35.5,77.5C 35.1667,77.5 34.8333,77.5 34.5,77.5C 34.5875,74.4017 34.0875,74.0684 33,76.5C 32.7547,74.3367 31.7547,72.67 30,71.5C 29.2751,74.7898 28.1084,77.7898 26.5,80.5C 27.3683,77.3273 27.3683,74.3273 26.5,71.5C 27.1667,70.5 27.8333,69.5 28.5,68.5 Z"/></g>
<g><path style="opacity:1" fill="#ebe5a6" d="M 62.5,71.5 C 63.1667,71.5 63.8333,71.5 64.5,71.5C 64.9272,74.3761 65.5938,77.2094 66.5,80C 66.1639,81.0299 65.4972,81.5299 64.5,81.5C 63.9239,78.1244 63.2572,74.7911 62.5,71.5 Z"/></g>
<g><path style="opacity:1" fill="#e1dca5" d="M 35.5,82.5 C 34.2801,80.9504 34.2801,79.2837 35.5,77.5C 35.6964,75.3544 36.6964,75.1878 38.5,77C 37.0289,78.5833 36.0289,80.4166 35.5,82.5 Z"/></g>
<g><path style="opacity:1" fill="#e1e1de" d="M 57.5,83.5 C 57.573,85.0269 56.9063,86.0269 55.5,86.5C 54.928,85.0267 54.0946,83.6934 53,82.5C 52.2025,80.7412 52.3691,79.0745 53.5,77.5C 55.8329,78.8322 57.1663,80.8322 57.5,83.5 Z"/></g>
<g><path style="opacity:1" fill="#e3dda7" d="M 59.5,74.5 C 60.8323,79.4974 62.1656,84.4974 63.5,89.5C 63.1667,89.5 62.8333,89.5 62.5,89.5C 62.2624,87.5956 61.2624,86.2623 59.5,85.5C 58.842,82.8445 58.1754,80.1778 57.5,77.5C 57.6399,75.9704 58.3065,74.9704 59.5,74.5 Z"/></g>
<g><path style="opacity:1" fill="#57533e" d="M 64.5,71.5 C 66.0252,74.0791 67.3586,76.7458 68.5,79.5C 68.8333,81.5 69.1667,83.5 69.5,85.5C 68.7784,85.0825 68.2784,84.4158 68,83.5C 67.5045,85.4727 67.3379,87.4727 67.5,89.5C 66.1667,89.5 64.8333,89.5 63.5,89.5C 62.1656,84.4974 60.8323,79.4974 59.5,74.5C 60.2216,74.0825 60.7216,73.4158 61,72.5C 62.2525,75.0135 62.7525,77.6802 62.5,80.5C 63.6056,83.054 64.439,85.7206 65,88.5C 66.8043,86.0764 66.6376,83.7431 64.5,81.5C 65.4972,81.5299 66.1639,81.0299 66.5,80C 65.5938,77.2094 64.9272,74.3761 64.5,71.5 Z"/></g>
<g><path style="opacity:1" fill="#42442e" d="M 26.5,80.5 C 26.573,82.0269 25.9063,83.0269 24.5,83.5C 24.427,81.9731 25.0937,80.9731 26.5,80.5 Z"/></g>
<g><path style="opacity:1" fill="#dadada" d="M 52.5,89.5 C 49.1667,89.5 45.8333,89.5 42.5,89.5C 42.32,85.7144 43.32,82.381 45.5,79.5C 46.1667,79.5 46.8333,79.5 47.5,79.5C 47.2978,81.9892 47.7978,84.3225 49,86.5C 50.1127,84.408 50.2793,82.0747 49.5,79.5C 49.56,78.9569 49.8933,78.6236 50.5,78.5C 51.5386,82.1054 52.2053,85.7721 52.5,89.5 Z"/></g>
<g><path style="opacity:1" fill="#646164" d="M 47.5,79.5 C 48.1667,79.5 48.8333,79.5 49.5,79.5C 50.2793,82.0747 50.1127,84.408 49,86.5C 47.7978,84.3225 47.2978,81.9892 47.5,79.5 Z"/></g>
<g><path style="opacity:1" fill="#60605b" d="M 57.5,83.5 C 58.1667,84.1667 58.8333,84.8333 59.5,85.5C 61.2624,86.2623 62.2624,87.5956 62.5,89.5C 61.5,89.5 60.5,89.5 59.5,89.5C 60.5981,88.603 60.5981,87.7697 59.5,87C 58.1807,86.805 56.8474,86.9717 55.5,87.5C 55.5,87.1667 55.5,86.8333 55.5,86.5C 56.9063,86.0269 57.573,85.0269 57.5,83.5 Z"/></g>
<g><path style="opacity:1" fill="#dfd89b" d="M 62.5,80.5 C 63.1667,80.8333 63.8333,81.1667 64.5,81.5C 66.6376,83.7431 66.8043,86.0764 65,88.5C 64.439,85.7206 63.6056,83.054 62.5,80.5 Z"/></g>
<g><path style="opacity:1" fill="#dfda9e" d="M 69.5,85.5 C 69.5,86.8333 69.5,88.1667 69.5,89.5C 68.8333,89.5 68.1667,89.5 67.5,89.5C 67.3379,87.4727 67.5045,85.4727 68,83.5C 68.2784,84.4158 68.7784,85.0825 69.5,85.5 Z"/></g>
<g><path style="opacity:1" fill="#706f4c" d="M 22.5,83.5 C 22.369,84.2389 22.5357,84.9056 23,85.5C 23.2784,84.5842 23.7784,83.9175 24.5,83.5C 24.7373,84.791 24.404,85.791 23.5,86.5C 21.8041,88.129 20.8041,87.7957 20.5,85.5C 21.1667,84.8333 21.8333,84.1667 22.5,83.5 Z"/></g>
<g><path style="opacity:1" fill="#cec994" d="M 68.5,79.5 C 70.1903,81.5038 71.5236,83.8371 72.5,86.5C 72.3333,86.8333 72.1667,87.1667 72,87.5C 71.2917,86.6195 70.4584,85.9528 69.5,85.5C 69.1667,83.5 68.8333,81.5 68.5,79.5 Z"/></g>
<g><path style="opacity:0.798" fill="#1c1c17" d="M 20.5,85.5 C 20.8041,87.7957 21.8041,88.129 23.5,86.5C 23.5,87.5 23.5,88.5 23.5,89.5C 21.5,89.5 19.5,89.5 17.5,89.5C 17.0882,87.0274 18.0882,85.6941 20.5,85.5 Z"/></g>
<g><path style="opacity:0.871" fill="#787559" d="M 34.5,77.5 C 34.8333,77.5 35.1667,77.5 35.5,77.5C 34.2801,79.2837 34.2801,80.9504 35.5,82.5C 34.0115,84.6451 33.0115,86.9785 32.5,89.5C 31.5,89.5 30.5,89.5 29.5,89.5C 30.4942,86.1956 31.4942,82.8622 32.5,79.5C 33.1818,78.7573 33.8485,78.0906 34.5,77.5 Z"/></g>
<g><path style="opacity:1" fill="#cecdcc" d="M 38.5,89.5 C 37.5,89.5 36.5,89.5 35.5,89.5C 35.0825,88.7784 34.4158,88.2784 33.5,88C 35.792,84.5838 37.9586,81.0838 40,77.5C 40.9246,78.0465 41.7579,78.7132 42.5,79.5C 40.5936,82.64 39.2603,85.9734 38.5,89.5 Z"/></g>
<g><path style="opacity:1" fill="#d3d4d2" d="M 59.5,89.5 C 58.1667,89.5 56.8333,89.5 55.5,89.5C 55.5,88.8333 55.5,88.1667 55.5,87.5C 56.8474,86.9717 58.1807,86.805 59.5,87C 60.5981,87.7697 60.5981,88.603 59.5,89.5 Z"/></g>
<g><path style="opacity:0.008" fill="#000000" d="M 13.5,89.5 C 12.8333,88.1667 12.8333,88.1667 13.5,89.5 Z"/></g>
</svg>
