<svg width="40" height="40" viewBox="0 0 40 40" fill="none" xmlns="http://www.w3.org/2000/svg">
<rect width="40" height="40" rx="4" fill="url(#paint0_linear_2_2)"/>
<g clip-path="url(#clip0_2_2)">
<path d="M5.43466 27V12.4545H10.8892C12.0066 12.4545 12.9441 12.6629 13.7017 13.0795C14.464 13.4962 15.0393 14.0691 15.4276 14.7983C15.8205 15.5227 16.017 16.3466 16.017 17.2699C16.017 18.2027 15.8205 19.0312 15.4276 19.7557C15.0346 20.4801 14.4545 21.0507 13.6875 21.4673C12.9205 21.8793 11.9759 22.0852 10.8537 22.0852H7.23864V19.919H10.4986C11.152 19.919 11.687 19.8054 12.1037 19.5781C12.5204 19.3509 12.8281 19.0384 13.027 18.6406C13.2306 18.2429 13.3324 17.786 13.3324 17.2699C13.3324 16.7538 13.2306 16.2992 13.027 15.9062C12.8281 15.5133 12.518 15.2079 12.0966 14.9901C11.6799 14.7675 11.1425 14.6562 10.4844 14.6562H8.0696V27H5.43466ZM18.1921 27V16.0909H20.685V17.9091H20.7987C20.9975 17.2794 21.3384 16.794 21.8214 16.4531C22.3091 16.1075 22.8654 15.9347 23.4904 15.9347C23.6325 15.9347 23.7911 15.9418 23.9663 15.956C24.1462 15.9654 24.2953 15.982 24.4137 16.0057V18.3707C24.3048 18.3329 24.132 18.2997 23.8952 18.2713C23.6632 18.2382 23.4383 18.2216 23.2205 18.2216C22.7518 18.2216 22.3304 18.3234 21.9563 18.527C21.587 18.7259 21.2958 19.0028 21.0827 19.358C20.8697 19.7131 20.7631 20.1226 20.7631 20.5866V27H18.1921ZM30.4311 27.2131C29.3658 27.2131 28.4425 26.9787 27.6612 26.5099C26.88 26.0412 26.2739 25.3854 25.843 24.5426C25.4169 23.6998 25.2038 22.715 25.2038 21.5881C25.2038 20.4612 25.4169 19.474 25.843 18.6264C26.2739 17.7789 26.88 17.1207 27.6612 16.652C28.4425 16.1832 29.3658 15.9489 30.4311 15.9489C31.4964 15.9489 32.4197 16.1832 33.201 16.652C33.9822 17.1207 34.5859 17.7789 35.0121 18.6264C35.4429 19.474 35.6584 20.4612 35.6584 21.5881C35.6584 22.715 35.4429 23.6998 35.0121 24.5426C34.5859 25.3854 33.9822 26.0412 33.201 26.5099C32.4197 26.9787 31.4964 27.2131 30.4311 27.2131ZM30.4453 25.1534C31.023 25.1534 31.5059 24.9948 31.8942 24.6776C32.2824 24.3556 32.5713 23.9247 32.7607 23.3849C32.9548 22.8452 33.0518 22.2438 33.0518 21.581C33.0518 20.9134 32.9548 20.3097 32.7607 19.7699C32.5713 19.2254 32.2824 18.7921 31.8942 18.4702C31.5059 18.1482 31.023 17.9872 30.4453 17.9872C29.8535 17.9872 29.361 18.1482 28.968 18.4702C28.5798 18.7921 28.2886 19.2254 28.0945 19.7699C27.9051 20.3097 27.8104 20.9134 27.8104 21.581C27.8104 22.2438 27.9051 22.8452 28.0945 23.3849C28.2886 23.9247 28.5798 24.3556 28.968 24.6776C29.361 24.9948 29.8535 25.1534 30.4453 25.1534Z" fill="white"/>
</g>
<defs>
<linearGradient id="paint0_linear_2_2" x1="40" y1="20" x2="-0.5" y2="19.5" gradientUnits="userSpaceOnUse">
<stop stop-color="#13C2C2"/>
<stop offset="1" stop-color="#1677FF"/>
</linearGradient>
<clipPath id="clip0_2_2">
<rect width="33" height="24" fill="white" transform="translate(4 8)"/>
</clipPath>
</defs>
</svg>
